<svg xmlns="http://www.w3.org/2000/svg" width="139.68mm" height="139.63mm" viewBox="0 0 395.93 395.81"><title>SVG export Illustrator</title><path d="M81.62,57.48c32.79-27.34,75.5-42.72,118.23-41.81C252,15.53,303.29,40,336.88,79.72A182.42,182.42,0,0,1,131.67,367.89a186.92,186.92,0,0,1-43.61-24.34c3.18-23.94,15-46.53,32.26-63.35a110.71,110.71,0,0,1,70.49-31.37c7-.65,14-.08,21.05-.41A155.78,155.78,0,0,1,289.64,267c3.21,1.69,7.45,3.49,7.65,7.72.54,5.42-5.19,7.75-8.52,10.84,8.7-.32,16.81-4.31,24.17-8.67,7-4,9.08-14.69,3.42-20.69-9.62-10.72-20-20.7-29.77-31.3-2.69-3.05-6.42-5.62-7.18-9.89a130.81,130.81,0,0,0-57.49-77.49c-17.28-11.09-37.4-17.46-57.79-19.36-43.76-5.35-88.19-3.75-131.64,3.47C43.41,96.76,60.84,74.92,81.62,57.48Z" style="fill:#fff"/><path d="M216.56,168.68a50.59,50.59,0,0,1,8.08,7.26c8.84,8.82,17.72,17.6,26.49,26.5a33.65,33.65,0,0,1,5,5.77c-6.9.24-13.8.16-20.69,0-4.16-9-8.89-17.76-13.21-26.7C220.24,177.28,217.72,173.25,216.56,168.68Z" style="fill:#fff"/><path d="M188.26.21A197.9,197.9,0,0,1,346,66.57a197.82,197.82,0,0,1-55.86,306.49c-49.45,26.43-110.27,30-162.57,9.88A198.18,198.18,0,0,1,2.39,228.49C-5.2,180.75,5.45,130.34,32.08,90A198.59,198.59,0,0,1,135.39,10.14,201.24,201.24,0,0,1,188.26.21M81.62,57.48C60.84,74.92,43.41,96.76,32.49,121.67c43.45-7.22,87.88-8.82,131.64-3.47,20.39,1.9,40.51,8.27,57.79,19.36a130.81,130.81,0,0,1,57.49,77.49c.76,4.27,4.49,6.84,7.18,9.89,9.75,10.6,20.15,20.58,29.77,31.3,5.66,6,3.62,16.68-3.42,20.69-7.36,4.36-15.47,8.35-24.17,8.67,3.33-3.09,9.06-5.42,8.52-10.84-.2-4.23-4.44-6-7.65-7.72a155.78,155.78,0,0,0-77.78-18.62c-7,.33-14.05-.24-21.05.41a110.71,110.71,0,0,0-70.49,31.37C103.06,297,91.24,319.61,88.06,343.55a186.92,186.92,0,0,0,43.61,24.34A182.44,182.44,0,0,0,336.88,79.72c-33.59-39.76-84.88-64.19-137-64-42.73-.91-85.44,14.47-118.23,41.81m134.94,111.2c1.16,4.57,3.68,8.6,5.69,12.82,4.32,8.94,9.05,17.68,13.21,26.7,6.89.17,13.79.25,20.69,0a33.65,33.65,0,0,0-5-5.77c-8.77-8.9-17.65-17.68-26.49-26.5A50.59,50.59,0,0,0,216.56,168.68Z" style="fill:#333"/></svg>