<svg id="Layer_1" xmlns="http://www.w3.org/2000/svg" viewBox="0 0 35.2 21.4" width="2500" height="1520"><style>.st0{fill:none;stroke:#291a41;stroke-width:2.2}.st1{fill:#291a41}</style><path class="st0" d="M14.9 19.9v-9.4c0-.7-.3-1.3-.9-1.7L2.7 1.3c-.5-.3-1.1-.2-1.4.2-.1.2-.2.4-.2.6v17.8M20.3 19.9v-9.4c0-.7.3-1.3.9-1.7l11.4-7.6c.4-.2 1-.1 1.3.3.1.2.2.4.2.6v17.8"/><path class="st1" d="M1.1 18.4c.6 0 1.1.5 1.1 1.1v.8c0 .6-.5 1.1-1.1 1.1-.6 0-1.1-.5-1.1-1.1v-.8c0-.6.5-1.1 1.1-1.1zM20.3 18.4c.6 0 1.1.5 1.1 1.1v.8c0 .6-.5 1.1-1.1 1.1-.6 0-1.1-.5-1.1-1.1v-.8c0-.6.5-1.1 1.1-1.1zM34.1 18.4c.6 0 1.1.5 1.1 1.1v.8c0 .6-.5 1.1-1.1 1.1-.6 0-1.1-.5-1.1-1.1v-.8c0-.6.5-1.1 1.1-1.1zM14.9 18.4c.6 0 1.1.5 1.1 1.1v.8c0 .6-.5 1.1-1.1 1.1-.6 0-1.1-.5-1.1-1.1v-.8c0-.6.5-1.1 1.1-1.1z"/></svg>