<svg xmlns="http://www.w3.org/2000/svg" width="2000" height="1763.94" viewBox="0 0 2000 1763.94"><g fill="#5f45ba"><path d="M534.74,170.92a113.13,113.13,0,1,1-39.5-155,113.14,113.14,0,0,1,39.5,155"/><path d="M148.63,120.73a79.91,79.91,0,1,1-27.9-109.51,79.91,79.91,0,0,1,27.9,109.51"/><path d="M1223.37,1757.74c414.4-48.67,747.72-387.48,774.86-818.69C2028.78,453.88,1660.22,35.8,1175,5.26a882.91,882.91,0,0,0-170.54,5.83c-116.64,9.54-215.11,54-215.11,54-79.62,38.88-131.17,104.08-131.17,191.31,0,113.41,91.93,205.35,205.34,205.35,19,0,84.63-20.77,100.16-26.18a473.12,473.12,0,0,1,185.82-25.33c167.64,10.56,309.32,107,385.21,243.69a472.2,472.2,0,0,1,58.54,259.68c-16.47,261.53-241.82,460.2-503.36,443.74C935.4,1347.59,802.86,1264.9,723.64,1145a.66.66,0,0,0,0,.14.61.61,0,0,1,0-.14c-94.77-124-72.86-322.3-73-324.75C646.79,710,556.44,621.75,445.26,621.75c-95,0-174.74,64.47-198.44,152-4.65,17.18-7,67.56-6.31,74.31-19.56,476.78,345.3,884.09,823.92,914.22a885.47,885.47,0,0,0,158.94-4.51"/><path d="M416.88,484.92a146.68,146.68,0,1,1-51.22-201,146.68,146.68,0,0,1,51.22,201"/></g></svg>